<?xml version="1.0" standalone="no"?>
<!DOCTYPE svg PUBLIC "-//W3C//DTD SVG 20010904//EN"
 "http://www.w3.org/TR/2001/REC-SVG-20010904/DTD/svg10.dtd">
<svg version="1.0" xmlns="http://www.w3.org/2000/svg"
 width="1048.000000pt" height="460.000000pt" viewBox="0 0 1048.000000 460.000000"
 preserveAspectRatio="xMidYMid meet">
<metadata>
Created by potrace 1.15, written by Peter Selinger 2001-2017
</metadata>
<g transform="translate(0.000000,460.000000) scale(0.100000,-0.100000)"
fill="#000000" stroke="none">
<path d="M5015 4150 c-369 -39 -728 -212 -991 -478 -488 -491 -610 -1218 -308
-1835 339 -692 1128 -1056 1880 -867 622 156 1091 647 1216 1273 32 162 32
435 0 594 -65 323 -217 607 -447 838 -179 178 -364 295 -610 386 -224 83 -494
115 -740 89z m385 -54 c821 -110 1422 -811 1387 -1620 -9 -217 -53 -394 -149
-596 -188 -398 -514 -685 -946 -831 -168 -57 -285 -74 -502 -73 -218 1 -318
16 -505 78 -837 279 -1286 1181 -995 1998 251 704 969 1142 1710 1044z"/>
<path d="M5181 2697 c-60 -31 -83 -125 -48 -194 31 -59 125 -69 176 -19 35 35
41 127 12 174 -31 49 -89 65 -140 39z m104 -31 c30 -30 40 -84 25 -130 -22
-67 -86 -86 -137 -42 -25 22 -28 31 -28 86 0 55 3 64 28 86 36 31 81 31 112 0z"/>
<path d="M5410 2580 c0 -80 4 -130 10 -130 6 0 10 25 10 55 l0 55 40 0 c80 0
121 84 64 129 -19 15 -41 21 -75 21 l-49 0 0 -130z"/>
</g>
</svg>
